<?xml version="1.0" standalone="no"?>
<!DOCTYPE svg PUBLIC "-//W3C//DTD SVG 20010904//EN"
 "http://www.w3.org/TR/2001/REC-SVG-20010904/DTD/svg10.dtd">
<svg version="1.0" xmlns="http://www.w3.org/2000/svg"
 width="260.000000pt" height="260.000000pt" viewBox="0 0 260.000000 260.000000"
 preserveAspectRatio="xMidYMid meet">
<metadata>
Created by potrace 1.11, written by Peter Selinger 2001-2013
</metadata>
<g transform="translate(0.000000,260.000000) scale(0.100000,-0.100000)"
fill="#000000" stroke="none">
<path d="M1210 1867 c0 -10 12 -19 28 -23 15 -4 43 -17 62 -28 19 -12 59 -32
87 -46 29 -14 53 -28 53 -32 0 -5 6 -8 13 -8 7 0 32 -11 57 -25 25 -14 73 -38
107 -55 34 -16 64 -34 67 -39 3 -5 17 -12 32 -15 14 -4 42 -17 63 -30 20 -13
46 -26 57 -29 16 -4 15 -5 -6 -7 -14 -1 -61 -6 -105 -11 -166 -19 -344 -39
-475 -53 -74 -8 -151 -17 -170 -21 -19 -3 -78 -10 -130 -15 -52 -5 -156 -16
-230 -25 -74 -8 -170 -18 -212 -21 -66 -6 -78 -9 -78 -24 0 -12 10 -20 33 -23
17 -3 52 -11 77 -16 45 -11 210 -43 309 -62 30 -5 58 -12 63 -15 4 -3 43 -11
85 -19 153 -27 198 -36 213 -42 14 -6 70 -17 225 -44 39 -7 72 -15 75 -19 3
-3 37 -11 75 -18 155 -25 205 -36 205 -44 0 -4 18 -8 39 -8 68 0 78 -10 31
-31 -23 -11 -48 -19 -56 -19 -8 0 -14 -4 -14 -9 0 -5 -12 -12 -27 -16 -16 -3
-44 -13 -63 -22 -19 -8 -49 -22 -67 -29 -17 -8 -34 -14 -38 -14 -4 0 -37 -14
-73 -31 -37 -17 -79 -33 -94 -36 -15 -3 -28 -9 -28 -14 0 -5 -6 -9 -12 -9 -7
-1 -31 -9 -53 -20 -22 -11 -48 -19 -57 -20 -10 0 -18 -4 -18 -10 0 -5 -6 -10
-12 -10 -7 -1 -31 -9 -53 -20 -22 -11 -45 -19 -52 -20 -6 0 -24 -6 -40 -14
-15 -8 -41 -20 -58 -26 -73 -30 -83 -46 -30 -52 19 -2 35 -1 35 3 0 3 40 9 88
13 49 3 104 11 122 16 18 5 84 12 146 16 63 4 112 10 108 13 -6 6 80 17 331
43 66 6 122 15 125 18 3 4 38 10 79 13 l75 6 -80 -78 c-43 -43 -82 -77 -86
-74 -5 2 -8 -1 -8 -7 0 -6 -35 -44 -77 -85 -101 -96 -91 -110 35 -50 51 25 99
45 107 45 8 0 15 5 15 10 0 6 5 10 11 10 10 0 53 18 157 66 29 14 58 22 64 18
7 -4 8 -3 4 4 -4 7 -1 12 8 12 12 0 14 -8 10 -32 -3 -18 -8 -40 -12 -48 -3 -8
-11 -37 -18 -65 -7 -27 -19 -77 -28 -110 -8 -33 -20 -82 -27 -110 -6 -27 -16
-56 -21 -62 -15 -19 -2 -44 19 -36 10 4 23 11 28 15 15 13 161 118 238 172
l67 47 0 649 0 649 -22 7 c-13 4 -25 9 -28 13 -3 3 -54 31 -115 61 -60 30
-112 58 -115 61 -3 3 -13 8 -22 12 -40 14 -24 -16 46 -90 75 -79 80 -93 26
-75 -16 6 -61 14 -100 18 -39 3 -73 11 -76 15 -3 5 -25 9 -50 9 -25 0 -43 3
-41 8 3 4 -11 7 -31 8 -51 1 -216 26 -222 34 -3 3 -45 12 -95 18 -121 17 -237
37 -255 44 -8 4 -37 9 -65 12 -27 3 -74 9 -102 12 -45 6 -53 4 -53 -9z"/>
</g>
</svg>
